<mxfile host="app.diagrams.net" modified="2023-06-23T13:27:40.014Z" agent="Mozilla/5.0 (Windows NT 10.0; Win64; x64) AppleWebKit/537.36 (KHTML, like Gecko) Chrome/114.0.0.0 Safari/537.36 Edg/114.0.1823.51" etag="8Me6BtT_DS1sI1uTuloB" version="21.3.8" type="github">
  <diagram name="第 1 页" id="76xGW2gvjzstjTI4UCQK">
    <mxGraphModel dx="1566" dy="775" grid="0" gridSize="10" guides="1" tooltips="1" connect="1" arrows="1" fold="1" page="0" pageScale="1" pageWidth="827" pageHeight="1169" math="0" shadow="0">
      <root>
        <mxCell id="0" />
        <mxCell id="1" parent="0" />
        <mxCell id="rZd4BDkzofcvLWubVI7U-13" style="edgeStyle=orthogonalEdgeStyle;rounded=0;orthogonalLoop=1;jettySize=auto;html=1;exitX=0.5;exitY=1;exitDx=0;exitDy=0;entryX=0.5;entryY=0;entryDx=0;entryDy=0;" edge="1" parent="1" source="rZd4BDkzofcvLWubVI7U-1" target="rZd4BDkzofcvLWubVI7U-2">
          <mxGeometry relative="1" as="geometry" />
        </mxCell>
        <mxCell id="rZd4BDkzofcvLWubVI7U-1" value="开始" style="rounded=1;whiteSpace=wrap;html=1;" vertex="1" parent="1">
          <mxGeometry x="-60" y="110" width="120" height="40" as="geometry" />
        </mxCell>
        <mxCell id="rZd4BDkzofcvLWubVI7U-14" style="edgeStyle=orthogonalEdgeStyle;rounded=0;orthogonalLoop=1;jettySize=auto;html=1;entryX=0.5;entryY=0;entryDx=0;entryDy=0;" edge="1" parent="1" source="rZd4BDkzofcvLWubVI7U-2" target="rZd4BDkzofcvLWubVI7U-4">
          <mxGeometry relative="1" as="geometry" />
        </mxCell>
        <mxCell id="rZd4BDkzofcvLWubVI7U-2" value="输入含摘要&lt;br&gt;word文档" style="shape=parallelogram;perimeter=parallelogramPerimeter;whiteSpace=wrap;html=1;fixedSize=1;" vertex="1" parent="1">
          <mxGeometry x="-60" y="180" width="120" height="40" as="geometry" />
        </mxCell>
        <mxCell id="rZd4BDkzofcvLWubVI7U-23" style="edgeStyle=orthogonalEdgeStyle;rounded=0;orthogonalLoop=1;jettySize=auto;html=1;entryX=0.5;entryY=0;entryDx=0;entryDy=0;" edge="1" parent="1" source="rZd4BDkzofcvLWubVI7U-3" target="rZd4BDkzofcvLWubVI7U-10">
          <mxGeometry relative="1" as="geometry" />
        </mxCell>
        <mxCell id="rZd4BDkzofcvLWubVI7U-3" value="根据链接爬取原文" style="rounded=0;whiteSpace=wrap;html=1;" vertex="1" parent="1">
          <mxGeometry x="-60" y="390" width="120" height="40" as="geometry" />
        </mxCell>
        <mxCell id="rZd4BDkzofcvLWubVI7U-17" style="edgeStyle=orthogonalEdgeStyle;rounded=0;orthogonalLoop=1;jettySize=auto;html=1;entryX=0.5;entryY=0;entryDx=0;entryDy=0;" edge="1" parent="1" source="rZd4BDkzofcvLWubVI7U-4" target="rZd4BDkzofcvLWubVI7U-5">
          <mxGeometry relative="1" as="geometry">
            <Array as="points">
              <mxPoint x="-135" y="275" />
            </Array>
          </mxGeometry>
        </mxCell>
        <mxCell id="rZd4BDkzofcvLWubVI7U-19" value="是" style="edgeLabel;html=1;align=center;verticalAlign=middle;resizable=0;points=[];" vertex="1" connectable="0" parent="rZd4BDkzofcvLWubVI7U-17">
          <mxGeometry x="-0.2254" y="-3" relative="1" as="geometry">
            <mxPoint as="offset" />
          </mxGeometry>
        </mxCell>
        <mxCell id="rZd4BDkzofcvLWubVI7U-18" style="edgeStyle=orthogonalEdgeStyle;rounded=0;orthogonalLoop=1;jettySize=auto;html=1;entryX=0.5;entryY=0;entryDx=0;entryDy=0;" edge="1" parent="1" source="rZd4BDkzofcvLWubVI7U-4" target="rZd4BDkzofcvLWubVI7U-9">
          <mxGeometry relative="1" as="geometry">
            <Array as="points">
              <mxPoint x="135" y="275" />
            </Array>
          </mxGeometry>
        </mxCell>
        <mxCell id="rZd4BDkzofcvLWubVI7U-20" value="否" style="edgeLabel;html=1;align=center;verticalAlign=middle;resizable=0;points=[];" vertex="1" connectable="0" parent="rZd4BDkzofcvLWubVI7U-18">
          <mxGeometry x="-0.2508" relative="1" as="geometry">
            <mxPoint as="offset" />
          </mxGeometry>
        </mxCell>
        <mxCell id="rZd4BDkzofcvLWubVI7U-4" value="标题含有超链接" style="rhombus;whiteSpace=wrap;html=1;" vertex="1" parent="1">
          <mxGeometry x="-75" y="250" width="150" height="50" as="geometry" />
        </mxCell>
        <mxCell id="rZd4BDkzofcvLWubVI7U-21" style="edgeStyle=orthogonalEdgeStyle;rounded=0;orthogonalLoop=1;jettySize=auto;html=1;entryX=0.5;entryY=0;entryDx=0;entryDy=0;" edge="1" parent="1" source="rZd4BDkzofcvLWubVI7U-5" target="rZd4BDkzofcvLWubVI7U-3">
          <mxGeometry relative="1" as="geometry">
            <Array as="points">
              <mxPoint x="-135" y="370" />
              <mxPoint y="370" />
            </Array>
          </mxGeometry>
        </mxCell>
        <mxCell id="rZd4BDkzofcvLWubVI7U-5" value="提取标题、摘要及标题中的超链接" style="rounded=0;whiteSpace=wrap;html=1;" vertex="1" parent="1">
          <mxGeometry x="-195" y="310" width="120" height="40" as="geometry" />
        </mxCell>
        <mxCell id="rZd4BDkzofcvLWubVI7U-22" style="edgeStyle=orthogonalEdgeStyle;rounded=0;orthogonalLoop=1;jettySize=auto;html=1;entryX=0.5;entryY=0;entryDx=0;entryDy=0;" edge="1" parent="1" source="rZd4BDkzofcvLWubVI7U-9" target="rZd4BDkzofcvLWubVI7U-3">
          <mxGeometry relative="1" as="geometry">
            <Array as="points">
              <mxPoint x="135" y="370" />
              <mxPoint y="370" />
            </Array>
          </mxGeometry>
        </mxCell>
        <mxCell id="rZd4BDkzofcvLWubVI7U-9" value="提取标题、摘要及“详情&amp;gt;&amp;gt;”中的超链接" style="rounded=0;whiteSpace=wrap;html=1;" vertex="1" parent="1">
          <mxGeometry x="75" y="310" width="120" height="40" as="geometry" />
        </mxCell>
        <mxCell id="rZd4BDkzofcvLWubVI7U-24" style="edgeStyle=orthogonalEdgeStyle;rounded=0;orthogonalLoop=1;jettySize=auto;html=1;entryX=0.5;entryY=0;entryDx=0;entryDy=0;" edge="1" parent="1" source="rZd4BDkzofcvLWubVI7U-10" target="rZd4BDkzofcvLWubVI7U-12">
          <mxGeometry relative="1" as="geometry" />
        </mxCell>
        <mxCell id="rZd4BDkzofcvLWubVI7U-10" value="存储“标题-摘要-原文”数据对" style="rounded=0;whiteSpace=wrap;html=1;" vertex="1" parent="1">
          <mxGeometry x="-60" y="460" width="120" height="40" as="geometry" />
        </mxCell>
        <mxCell id="rZd4BDkzofcvLWubVI7U-11" value="结束" style="rounded=1;whiteSpace=wrap;html=1;" vertex="1" parent="1">
          <mxGeometry x="-60" y="630" width="120" height="40" as="geometry" />
        </mxCell>
        <mxCell id="rZd4BDkzofcvLWubVI7U-25" style="edgeStyle=orthogonalEdgeStyle;rounded=0;orthogonalLoop=1;jettySize=auto;html=1;entryX=0.5;entryY=0;entryDx=0;entryDy=0;" edge="1" parent="1" source="rZd4BDkzofcvLWubVI7U-12" target="rZd4BDkzofcvLWubVI7U-11">
          <mxGeometry relative="1" as="geometry" />
        </mxCell>
        <mxCell id="rZd4BDkzofcvLWubVI7U-27" value="是" style="edgeLabel;html=1;align=center;verticalAlign=middle;resizable=0;points=[];" vertex="1" connectable="0" parent="rZd4BDkzofcvLWubVI7U-25">
          <mxGeometry x="-0.2058" y="2" relative="1" as="geometry">
            <mxPoint as="offset" />
          </mxGeometry>
        </mxCell>
        <mxCell id="rZd4BDkzofcvLWubVI7U-26" style="edgeStyle=orthogonalEdgeStyle;rounded=0;orthogonalLoop=1;jettySize=auto;html=1;entryX=1;entryY=0.5;entryDx=0;entryDy=0;" edge="1" parent="1" source="rZd4BDkzofcvLWubVI7U-12" target="rZd4BDkzofcvLWubVI7U-2">
          <mxGeometry relative="1" as="geometry">
            <Array as="points">
              <mxPoint x="220" y="560" />
              <mxPoint x="220" y="200" />
            </Array>
          </mxGeometry>
        </mxCell>
        <mxCell id="rZd4BDkzofcvLWubVI7U-28" value="否" style="edgeLabel;html=1;align=center;verticalAlign=middle;resizable=0;points=[];" vertex="1" connectable="0" parent="rZd4BDkzofcvLWubVI7U-26">
          <mxGeometry x="0.0726" y="-4" relative="1" as="geometry">
            <mxPoint x="-89" y="217" as="offset" />
          </mxGeometry>
        </mxCell>
        <mxCell id="rZd4BDkzofcvLWubVI7U-12" value="遍历所有&lt;br&gt;word文档" style="rhombus;whiteSpace=wrap;html=1;" vertex="1" parent="1">
          <mxGeometry x="-75" y="535" width="150" height="50" as="geometry" />
        </mxCell>
      </root>
    </mxGraphModel>
  </diagram>
</mxfile>
